# xmcd CD database file
#
# Track frame offsets:
#	150
#	20463
#	33910
#	53139
#	62761
#	77103
#	98009
#	108524
#	120459
#	132302
#	146975
#	158462
#	175824
#	187356
#	199673
#	211682
#	221283
#	237339
#	251389
#	262002
#
# Disc length: 3693 seconds
#
# Revision: 0
# Processed by: cddbd v1.5.2PL0 Copyright (c) Steve Scherf et al.
# Submitted via: CDex 1.70beta2
#
DISCID=190e6b14
DTITLE=The Starlite Orchestra - 20 Best of Dixieland
DYEAR=2006
DGENRE=Jazz
TTITLE0=Bourbon Street Parade
TTITLE1=Basin Street Blues
TTITLE2=Down Home Rag
TTITLE3=Pall Mall Ball
TTITLE4=Dixieland One Step
TTITLE5=Daddy's Favourite
TTITLE6=Special Blues
TTITLE7=Hog Dog Stomp
TTITLE8=Dixieland Daddy
TTITLE9=You and Me
TTITLE10=Ain't She Sweet
TTITLE11=Rockin' Chair
TTITLE12=St. Louis Blues
TTITLE13=Buttermilk Rag
TTITLE14=Chinese Egg Roll
TTITLE15=Muskrat Ramble
TTITLE16=Dixieland Special
TTITLE17=South Rampart Street Parade
TTITLE18=Tiger Rag
TTITLE19=When the Saints Go Marching In
EXTD=YEAR: 2006
EXTT0=
EXTT1=
EXTT2=
EXTT3=
EXTT4=
EXTT5=
EXTT6=
EXTT7=
EXTT8=
EXTT9=
EXTT10=
EXTT11=
EXTT12=
EXTT13=
EXTT14=
EXTT15=
EXTT16=
EXTT17=
EXTT18=
EXTT19=
PLAYORDER=
